<svg width="34" height="35" viewBox="0 0 34 35" fill="none" xmlns="http://www.w3.org/2000/svg">
<path d="M5.66663 27.1957V24.3624H8.49996V14.4457C8.49996 12.486 9.09024 10.7506 10.2708 9.23949C11.4513 7.70476 12.9861 6.70129 14.875 6.22907V5.2374C14.875 4.64712 15.0757 4.15129 15.477 3.7499C15.902 3.3249 16.4097 3.1124 17 3.1124C17.5902 3.1124 18.0861 3.3249 18.4875 3.7499C18.9125 4.15129 19.125 4.64712 19.125 5.2374V6.22907C21.0139 6.70129 22.5486 7.70476 23.7291 9.23949C24.9097 10.7506 25.5 12.486 25.5 14.4457V24.3624H28.3333V27.1957H5.66663ZM17 31.4457C16.2208 31.4457 15.5479 31.1742 14.9812 30.6312C14.4382 30.0645 14.1666 29.3916 14.1666 28.6124H19.8333C19.8333 29.3916 19.55 30.0645 18.9833 30.6312C18.4402 31.1742 17.7791 31.4457 17 31.4457ZM11.3333 24.3624H22.6666V14.4457C22.6666 12.8874 22.1118 11.5534 21.002 10.4437C19.8923 9.33393 18.5583 8.77907 17 8.77907C15.4416 8.77907 14.1076 9.33393 12.9979 10.4437C11.8882 11.5534 11.3333 12.8874 11.3333 14.4457V24.3624Z" fill="#6B8B81"/>
</svg>
